inDegrees=yes
name=ik_S55_A01_T02
DataType=double
version=3
OpenSimVersion=4.3-2021-08-27-4bc7ad9
endheader
time	pelvis_tilt	pelvis_list	pelvis_rotation	pelvis_tx	pelvis_ty	pelvis_tz	hip_flexion_r	hip_adduction_r	hip_rotation_r	knee_angle_r	knee_angle_r_beta	ankle_angle_r	subtalar_angle_r	mtp_angle_r	hip_flexion_l	hip_adduction_l	hip_rotation_l	knee_angle_l	knee_angle_l_beta	ankle_angle_l	subtalar_angle_l	mtp_angle_l	lumbar_extension	lumbar_bending	lumbar_rotation	arm_flex_r	arm_add_r	arm_rot_r	elbow_flex_r	pro_sup_r	wrist_flex_r	wrist_dev_r	arm_flex_l	arm_add_l	arm_rot_l	elbow_flex_l	pro_sup_l	wrist_flex_l	wrist_dev_l
0	0	0	0	0	0.9399999999999999	0	0	0	0	0	0	0	0	0	0	0	0	0	0	0	0	0	0	0	0	0	0	0	0	89.99999999963507	0	0	0	0	0	0	89.99999999869995	0	0
0.08	0.8121595422461927	-1.978654369752973	-82.98500875503777	0	0.9399999999999999	0	1.508412457243268	-3.490137202416262	-6.055923502206671	5.761316854614065	0.1005539483636589	0	0	0	2.448152708561863	-1.965074766694075	0.5883783051708789	3.58214504723512	0.06252022535826064	0	0	0	0	0	0	3.386065337877398	-3.386065337877398	0.6129686878583278	14.04268687810732	89.38703134780502	0	0	3.386065337877398	-3.386065337877398	0.6129686878583278	14.04268687810732	89.38703134698503	0	0
0.1	0.8159201623893	-2.045074570577812	-82.94551307081468	0	0.9399999999999999	0	1.414797838231746	-3.454567160734876	-6.097400264322284	5.647457966826721	0.09856673588911098	0	0	0	2.341797513346938	-1.95454094601561	0.6480856245429765	3.442703993944281	0.06008651986588663	0	0	0	0	0	0	3.556629769279783	-3.556629769279783	0.6446855279201301	14.75410679155129	89.35531450961432	0	0	3.556629769279783	-3.556629769279783	0.6446855279201301	14.75410679155129	89.35531450880023	0	0
0.12	0.8154783901125251	-2.041931041606116	-82.93401540311224	0	0.9399999999999999	0	1.435150949807588	-3.432736798337711	-6.112725940356083	5.66708444910001	0.09890928262536416	0	0	0	2.353936483828845	-1.964570616438601	0.6412179573753772	3.434331046825397	0.05994038437056672	0	0	0	0	0	0	3.650813801023568	-3.650813801023568	0.6619183543030762	15.04864809466546	89.33808168424341	0	0	3.650813801023568	-3.650813801023568	0.6619183543030762	15.04864809466546	89.33808168343256	0	0
0.14	0.808727341132958	-2.018225770220446	-82.92258531058495	0	0.9399999999999999	0	1.517658751416036	-3.423416173117647	-6.147508028410785	5.750392053854434	0.1003632746202789	0	0	0	2.387231622917213	-1.955293485643833	0.6550488795216232	3.452058397076035	0.06024978500009461	0	0	0	0	0	0	3.993087851531156	-3.993087851531156	0.7251746293977996	16.40710525451344	89.27482541287424	0	0	3.993087851531156	-3.993087851531156	0.7251746293977996	16.40710525451344	89.27482541207537	0	0
0.16	0.8293913992525632	-2.04042950558521	-82.90532368400498	0	0.9399999999999999	0	1.532236194264535	-3.46305206690467	-6.172840513118493	5.835161206690315	0.1018427754413914	0	0	0	2.38145282292132	-1.967712207505531	0.6023887989585306	3.492138006287059	0.06094930614373961	0	0	0	0	0	0	4.104432930627714	-4.104432930627714	0.7454575112195834	16.76394755573827	89.25454253224244	0	0	4.104432930627714	-4.104432930627714	0.7454575112195834	16.76394755573827	89.25454253144737	0	0
0.18	0.8276373091918305	-2.040470409941325	-82.90916180692896	0	0.9399999999999999	0	1.574072288414216	-3.462842326960399	-6.139742596907468	5.917737430507681	0.1032840024308682	0	0	0	2.406149052659276	-1.972600833602347	0.5947334039288806	3.538018169151099	0.06175006604706835	0	0	0	0	0	0	4.220671218705166	-4.220671218705166	0.7664908777852328	17.10867925468927	89.23350916690862	0	0	4.220671218705166	-4.220671218705166	0.7664908777852328	17.10867925468927	89.23350916611747	0	0
0.2	0.8325954953530423	-2.026680353974267	-82.90199912195479	0	0.9399999999999999	0	1.59400491640069	-3.469907233834827	-6.137646706479444	5.970359492160081	0.10420243066589	0	0	0	2.405607412116778	-1.96741962050066	0.5970198373632998	3.521006030254222	0.06145314821051125	0	0	0	0	0	0	4.792839254601545	-4.792839254601546	0.8700207225588382	19.06619181536526	89.12997932819982	0	0	4.792839254601545	-4.792839254601546	0.8700207225588382	19.06619181536526	89.12997932742802	0	0
0.22	0.8530908795389148	-2.080915560390975	-82.83668682862957	0	0.9399999999999999	0	1.510489741144391	-3.494422043259407	-6.119436953227348	6.000327151621669	0.1047254649926111	0	0	0	2.3331917042945	-1.945958101779541	0.6449754230029184	3.51970509838855	0.06143044266611115	0	0	0	0	0	0	5.286853256812738	-5.286853256812739	0.9589670324760561	20.79466491156433	89.04103302348769	0	0	5.286853256812738	-5.286853256812739	0.9589670324760561	20.79466491156433	89.04103302273248	0	0
